<svg width="842" height="790" viewBox="0 0 842 790" fill="none" xmlns="http://www.w3.org/2000/svg">
<g filter="url(#filter0_d_2:40)">
<path d="M55.5043 116.435C66.2459 77.2326 97.717 47.77 137.431 39.1108C210.739 23.1267 334.219 0 435 0C533.384 0 655.849 22.0396 731.471 37.9584C775.054 47.1327 808.44 81.0992 815.62 125.054C823.577 173.769 832.848 244.881 837 330C841.955 431.572 827.347 580.709 815.507 679.531C808.438 738.54 758.017 782 698.587 782H151.319C104.236 782 61.6029 754.385 47.7153 709.398C30.5994 653.952 10.4697 570.456 4.99996 472C-1.82689 349.117 32.8255 199.202 55.5043 116.435Z" fill="#CCF0E6"/>
</g>
<defs>
<filter id="filter0_d_2:40" x="0.124817" y="0" width="841.867" height="790" filterUnits="userSpaceOnUse" color-interpolation-filters="sRGB">
<feFlood flood-opacity="0" result="BackgroundImageFix"/>
<feColorMatrix in="SourceAlpha" type="matrix" values="0 0 0 0 0 0 0 0 0 0 0 0 0 0 0 0 0 0 127 0" result="hardAlpha"/>
<feOffset dy="4"/>
<feGaussianBlur stdDeviation="2"/>
<feComposite in2="hardAlpha" operator="out"/>
<feColorMatrix type="matrix" values="0 0 0 0 0 0 0 0 0 0 0 0 0 0 0 0 0 0 0.25 0"/>
<feBlend mode="normal" in2="BackgroundImageFix" result="effect1_dropShadow_2:40"/>
<feBlend mode="normal" in="SourceGraphic" in2="effect1_dropShadow_2:40" result="shape"/>
</filter>
</defs>
</svg>
